<?xml version="1.0" encoding="UTF-8" standalone="no"?>
<!-- Created with Inkscape (http://www.inkscape.org/) -->

<svg
   version="1.1"
   id="svg1"
   width="666.66669"
   height="666.66669"
   viewBox="0 0 666.66669 666.66669"
   sodipodi:docname="4888524.ai"
   inkscape:version="1.3 (0e150ed6c4, 2023-07-21)"
   inkscape:dataloss="true"
   xmlns:inkscape="http://www.inkscape.org/namespaces/inkscape"
   xmlns:sodipodi="http://sodipodi.sourceforge.net/DTD/sodipodi-0.dtd"
   xmlns="http://www.w3.org/2000/svg"
   xmlns:svg="http://www.w3.org/2000/svg">
  <defs
     id="defs1">
    <clipPath
       clipPathUnits="userSpaceOnUse"
       id="clipPath4">
      <path
         d="M 0,500 H 500 V 0 H 0 Z"
         transform="translate(-84.8341,-358.34051)"
         id="path4" />
    </clipPath>
    <clipPath
       clipPathUnits="userSpaceOnUse"
       id="clipPath10">
      <path
         d="M 0,500 H 500 V 0 H 0 Z"
         transform="translate(-138.9157,-409.05631)"
         id="path10" />
    </clipPath>
    <clipPath
       clipPathUnits="userSpaceOnUse"
       id="clipPath12">
      <path
         d="M 0,500 H 500 V 0 H 0 Z"
         transform="translate(-140.5294,-351.26191)"
         id="path12" />
    </clipPath>
    <clipPath
       clipPathUnits="userSpaceOnUse"
       id="clipPath14">
      <path
         d="M 0,500 H 500 V 0 H 0 Z"
         transform="translate(-144.3996,-370.15351)"
         id="path14" />
    </clipPath>
  </defs>
  <sodipodi:namedview
     id="namedview1"
     pagecolor="#ffffff"
     bordercolor="#000000"
     borderopacity="0.25"
     inkscape:showpageshadow="2"
     inkscape:pageopacity="0.0"
     inkscape:pagecheckerboard="0"
     inkscape:deskcolor="#d1d1d1"
     inkscape:zoom="0.97214952"
     inkscape:cx="261.791"
     inkscape:cy="313.73775"
     inkscape:window-width="1920"
     inkscape:window-height="1080"
     inkscape:window-x="0"
     inkscape:window-y="0"
     inkscape:window-maximized="1"
     inkscape:current-layer="layer-MC0" />
  <g
     id="layer-MC0"
     inkscape:groupmode="layer"
     inkscape:label="BACKGROUND">
    <path
       id="path1"
       d="M 0,0 H 500 V 500 H 0 Z"
       style="fill:#e0e0e0;fill-opacity:1;fill-rule:nonzero;stroke:none"
       transform="matrix(1.3333333,0,0,-1.3333333,0,666.66667)" />
    <path
       id="path2"
       d="M 0,2e-5 H 666.66665 V 666.66667 H 0 Z"
       style="fill:#ffffff;fill-opacity:1;fill-rule:nonzero;stroke:none;stroke-width:1.33333" />
  </g>
  <g
     id="layer-MC1"
     inkscape:groupmode="layer"
     inkscape:label="OBJECTS">
    <text
       id="text2"
       xml:space="preserve"
       x="32.337723"
       y="529.14929"
       style="font-size:44.9095px;stroke-width:3.74244"><tspan
         style="font-variant:normal;font-weight:800;font-stretch:normal;font-size:93.7282px;font-family:'Montserrat ExtraBold';writing-mode:lr-tb;fill:#3a3f4f;fill-opacity:1;fill-rule:nonzero;stroke:none;stroke-width:3.74244"
         sodipodi:role="line"
         id="tspan2"
         x="32.337723"
         y="529.14929">Exams Bank</tspan></text>
    <path
       id="path3"
       d="M 0,0 C -0.044,-0.008 -0.087,-0.017 -0.131,-0.025 -0.087,-0.017 -0.044,-0.008 0,0 M 0.862,0.11 C 0.804,0.105 0.747,0.097 0.689,0.091 0.747,0.097 0.804,0.105 0.862,0.11 m -1.729,-0.297 c -0.02,-0.005 -0.04,-0.011 -0.059,-0.016 0.019,0.005 0.039,0.011 0.059,0.016 m 58.82,-21.59 0.004,0.001 -0.005,-0.002 v 10e-4 z m 39.997,-2.833 -16.835,-6.802 -20.25,-8.182 c -0.008,-0.003 -0.016,-0.006 -0.024,-0.01 l -0.108,-0.043 c -0.054,-0.022 -0.109,-0.037 -0.164,-0.057 -0.161,-0.061 -0.32,-0.119 -0.485,-0.168 -0.092,-0.028 -0.186,-0.05 -0.279,-0.074 -0.139,-0.035 -0.279,-0.072 -0.421,-0.099 -0.109,-0.022 -0.217,-0.038 -0.328,-0.054 -0.127,-0.019 -0.255,-0.038 -0.383,-0.051 -0.119,-0.012 -0.235,-0.017 -0.354,-0.023 -0.122,-0.007 -0.244,-0.012 -0.366,-0.012 h -0.001 c -0.207,0 -0.414,0.012 -0.621,0.029 -0.032,0.002 -0.063,0.003 -0.095,0.006 -0.18,0.017 -0.361,0.046 -0.541,0.076 -0.058,0.009 -0.116,0.017 -0.174,0.029 -0.026,0.005 -0.05,0.012 -0.077,0.018 -0.135,0.028 -0.27,0.061 -0.405,0.098 -0.073,0.018 -0.146,0.035 -0.218,0.057 -0.163,0.049 -0.325,0.107 -0.485,0.168 -0.054,0.02 -0.109,0.035 -0.164,0.057 l -56.016,22.631 c -3.792,1.533 -5.846,5.814 -4.384,9.634 1.49,3.892 5.874,5.789 9.722,4.235 l 49.785,-20.115 0.835,-0.337 c 1.821,-0.736 3.856,-0.736 5.678,0 l 45.008,18.184 9.378,3.79 c 1.116,0.442 1.008,1.746 0.07,2.249 l -51.898,23.4 c -3.432,1.548 -7.363,1.548 -10.795,0 L -1.719,-0.448 c -2.687,-0.957 -4.895,-3.013 -6.01,-5.773 -2.103,-5.205 0.42,-11.151 5.625,-13.254 l 55.998,-22.624 c 0.66,-0.287 1.354,-0.503 2.071,-0.645 0.045,-0.009 0.089,-0.016 0.135,-0.024 0.244,-0.045 0.491,-0.081 0.742,-0.108 0.073,-0.008 0.145,-0.017 0.218,-0.023 0.294,-0.026 0.591,-0.043 0.891,-0.043 h 10e-4 0.001 c 1.308,0 2.59,0.25 3.812,0.743 l 51.297,20.718 c 2.487,1.004 2.916,1.902 2.916,4.146 z"
       style="fill:#3a3f4f;fill-opacity:1;fill-rule:nonzero;stroke:none"
       transform="matrix(3.7424548,0,0,-3.7424548,137.42018,269.25081)"
       clip-path="url(#clipPath4)" />
    <path
       id="path9"
       d="m 0,0 -38.212,-17.449 c -0.962,-0.439 -0.962,-1.804 0,-2.243 L 0,-37.141 c 1.154,-0.527 2.481,-0.527 3.636,0 l 38.212,17.449 c 0.962,0.439 0.962,1.804 0,2.243 L 3.636,0 C 2.481,0.527 1.154,0.527 0,0"
       style="fill:#3a3f4f;fill-opacity:1;fill-rule:nonzero;stroke:none"
       transform="matrix(3.7424548,0,0,-3.7424548,339.81812,79.449242)"
       clip-path="url(#clipPath10)" />
    <path
       id="path11"
       d="M 0,0 C -16.805,0 -29.478,5.719 -29.478,13.303 V 33.128 L -2.57,20.841 c 0.876,-0.401 1.81,-0.603 2.774,-0.603 0.964,0 1.899,0.202 2.776,0.603 l 26.498,12.1 V 13.303 C 29.478,5.719 16.805,0 0,0"
       style="fill:#ffffff;fill-opacity:1;fill-rule:nonzero;stroke:none"
       transform="matrix(3.7424548,0,0,-3.7424548,345.85732,295.74217)"
       clip-path="url(#clipPath12)" />
    <path
       id="path13"
       d="m 0,0 c -1.16,-0.529 -2.392,-0.797 -3.666,-0.797 -1.273,0 -2.507,0.268 -3.665,0.797 l -23.875,10.901 v -16.49 c 0,-6.163 12.239,-11.159 27.335,-11.159 15.097,0 27.335,4.996 27.335,11.159 v 16.303 z"
       style="fill:#3a3f4f;fill-opacity:1;fill-rule:nonzero;stroke:none"
       transform="matrix(3.7424548,0,0,-3.7424548,360.34138,225.04121)"
       clip-path="url(#clipPath14)" />
  </g>
</svg>
